HIERARCHY
ROOT Hips
{
	OFFSET 0 0 0
	CHANNELS 6 Xposition Yposition Zposition Yrotation Xrotation Zrotation
	JOINT Spine
	{
		OFFSET -0 7.6537 -2.43962
		CHANNELS 3 Yrotation Xrotation Zrotation
		JOINT Spine1
		{
			OFFSET -0 6.97908 0
			CHANNELS 3 Yrotation Xrotation Zrotation
			JOINT Spine2
			{
				OFFSET -0 6.97908 0
				CHANNELS 3 Yrotation Xrotation Zrotation
				JOINT Spine3
				{
					OFFSET -0 6.97908 0
					CHANNELS 3 Yrotation Xrotation Zrotation
					JOINT Neck
					{
						OFFSET -0 12.4536 3.43962
						CHANNELS 3 Yrotation Xrotation Zrotation
						JOINT Head
						{
							OFFSET -0 9.56712 0
							CHANNELS 3 Yrotation Xrotation Zrotation
							End Site
							{
								OFFSET 0 15 0
							}
						}
					}
					JOINT LeftShoulder
					{
						OFFSET 1.59452 1.70466 3.18904
						CHANNELS 3 Yrotation Xrotation Zrotation
						JOINT LeftArm
						{
							OFFSET 16.7394 0 0
							CHANNELS 3 Yrotation Xrotation Zrotation
							JOINT LeftForeArm
							{
								OFFSET 22.0792 0 0
								CHANNELS 3 Yrotation Xrotation Zrotation
								JOINT LeftHand
								{
									OFFSET 21.9518 0 0
									CHANNELS 3 Yrotation Xrotation Zrotation
									JOINT LeftHandThumb1
									{
										OFFSET 4.21471 0 2.29637
										CHANNELS 3 Yrotation Xrotation Zrotation
										JOINT LeftHandThumb2
										{
											OFFSET 3 0 1
											CHANNELS 3 Yrotation Xrotation Zrotation
											JOINT LeftHandThumb3
											{
												OFFSET 2.1 0 0
												CHANNELS 3 Yrotation Xrotation Zrotation
												JOINT LeftHandThumb4
												{
													OFFSET 1.305 0 0
													CHANNELS 3 Yrotation Xrotation Zrotation
													End Site
													{
														OFFSET -0 0 0
													}
												}
											}
										}
									}
									JOINT LeftHandIndex1
									{
										OFFSET 7.90742 0 3.16134
										CHANNELS 3 Yrotation Xrotation Zrotation
										JOINT LeftHandIndex2
										{
											OFFSET 3.5 0 0
											CHANNELS 3 Yrotation Xrotation Zrotation
											JOINT LeftHandIndex3
											{
												OFFSET 2.45 0 0
												CHANNELS 3 Yrotation Xrotation Zrotation
												JOINT LeftHandIndex4
												{
													OFFSET 1.5225 0 0
													CHANNELS 3 Yrotation Xrotation Zrotation
													End Site
													{
														OFFSET -0 0 0
													}
												}
											}
										}
									}
									JOINT LeftHandMiddle1
									{
										OFFSET 7.88523 0 0.8816
										CHANNELS 3 Yrotation Xrotation Zrotation
										JOINT LeftHandMiddle2
										{
											OFFSET 4.6 0 0
											CHANNELS 3 Yrotation Xrotation Zrotation
											JOINT LeftHandMiddle3
											{
												OFFSET 3.22 0 0
												CHANNELS 3 Yrotation Xrotation Zrotation
												JOINT LeftHandMiddle4
												{
													OFFSET 2.001 0 0
													CHANNELS 3 Yrotation Xrotation Zrotation
													End Site
													{
														OFFSET -0 0 0
													}
												}
											}
										}
									}
									JOINT LeftHandRing1
									{
										OFFSET 7.56303 0 -1.39814
										CHANNELS 3 Yrotation Xrotation Zrotation
										JOINT LeftHandRing2
										{
											OFFSET 3.75 0 0
											CHANNELS 3 Yrotation Xrotation Zrotation
											JOINT LeftHandRing3
											{
												OFFSET 2.625 0 0
												CHANNELS 3 Yrotation Xrotation Zrotation
												JOINT LeftHandRing4
												{
													OFFSET 1.63125 0 0
													CHANNELS 3 Yrotation Xrotation Zrotation
													End Site
													{
														OFFSET -0 0 0
													}
												}
											}
										}
									}
									JOINT LeftHandPinky1
									{
										OFFSET 6.94084 0 -3.67789
										CHANNELS 3 Yrotation Xrotation Zrotation
										JOINT LeftHandPinky2
										{
											OFFSET 2.875 0 0
											CHANNELS 3 Yrotation Xrotation Zrotation
											JOINT LeftHandPinky3
											{
												OFFSET 2.0125 0 0
												CHANNELS 3 Yrotation Xrotation Zrotation
												JOINT LeftHandPinky4
												{
													OFFSET 1.25062 0 0
													CHANNELS 3 Yrotation Xrotation Zrotation
													End Site
													{
														OFFSET -0 0 0
													}
												}
											}
										}
									}
								}
							}
						}
					}
					JOINT RightShoulder
					{
						OFFSET -1.59452 1.70466 3.18904
						CHANNELS 3 Yrotation Xrotation Zrotation
						JOINT RightArm
						{
							OFFSET -16.7394 0 0
							CHANNELS 3 Yrotation Xrotation Zrotation
							JOINT RightForeArm
							{
								OFFSET -22.0792 0 0
								CHANNELS 3 Yrotation Xrotation Zrotation
								JOINT RightHand
								{
									OFFSET -21.9518 0 0
									CHANNELS 3 Yrotation Xrotation Zrotation
									JOINT RightHandThumb1
									{
										OFFSET -4.13818 0 2.6379
										CHANNELS 3 Yrotation Xrotation Zrotation
										JOINT RightHandThumb2
										{
											OFFSET -3 0 1
											CHANNELS 3 Yrotation Xrotation Zrotation
											JOINT RightHandThumb3
											{
												OFFSET -2.1 0 0
												CHANNELS 3 Yrotation Xrotation Zrotation
												JOINT RightHandThumb4
												{
													OFFSET -1.305 0 0
													CHANNELS 3 Yrotation Xrotation Zrotation
													End Site
													{
														OFFSET -0 0 0
													}
												}
											}
										}
									}
									JOINT RightHandIndex1
									{
										OFFSET -6.97845 0 3.45401
										CHANNELS 3 Yrotation Xrotation Zrotation
										JOINT RightHandIndex2
										{
											OFFSET -3.5 0 0
											CHANNELS 3 Yrotation Xrotation Zrotation
											JOINT RightHandIndex3
											{
												OFFSET -2.45 0 0
												CHANNELS 3 Yrotation Xrotation Zrotation
												JOINT RightHandIndex4
												{
													OFFSET -1.5225 0 0
													CHANNELS 3 Yrotation Xrotation Zrotation
													End Site
													{
														OFFSET -0 0 0
													}
												}
											}
										}
									}
									JOINT RightHandMiddle1
									{
										OFFSET -7.47728 0 1.18452
										CHANNELS 3 Yrotation Xrotation Zrotation
										JOINT RightHandMiddle2
										{
											OFFSET -4.6 0 0
											CHANNELS 3 Yrotation Xrotation Zrotation
											JOINT RightHandMiddle3
											{
												OFFSET -3.22 0 0
												CHANNELS 3 Yrotation Xrotation Zrotation
												JOINT RightHandMiddle4
												{
													OFFSET -2.001 0 0
													CHANNELS 3 Yrotation Xrotation Zrotation
													End Site
													{
														OFFSET -0 0 0
													}
												}
											}
										}
									}
									JOINT RightHandRing1
									{
										OFFSET -7.67611 0 -1.08498
										CHANNELS 3 Yrotation Xrotation Zrotation
										JOINT RightHandRing2
										{
											OFFSET -3.75 0 0
											CHANNELS 3 Yrotation Xrotation Zrotation
											JOINT RightHandRing3
											{
												OFFSET -2.625 0 0
												CHANNELS 3 Yrotation Xrotation Zrotation
												JOINT RightHandRing4
												{
													OFFSET -1.63125 0 0
													CHANNELS 3 Yrotation Xrotation Zrotation
													End Site
													{
														OFFSET -0 0 0
													}
												}
											}
										}
									}
									JOINT RightHandPinky1
									{
										OFFSET -7.57495 0 -3.35448
										CHANNELS 3 Yrotation Xrotation Zrotation
										JOINT RightHandPinky2
										{
											OFFSET -2.875 0 0
											CHANNELS 3 Yrotation Xrotation Zrotation
											JOINT RightHandPinky3
											{
												OFFSET -2.0125 0 0
												CHANNELS 3 Yrotation Xrotation Zrotation
												JOINT RightHandPinky4
												{
													OFFSET -1.25062 0 0
													CHANNELS 3 Yrotation Xrotation Zrotation
													End Site
													{
														OFFSET -0 0 0
													}
												}
											}
										}
									}
								}
							}
						}
					}
				}
			}
		}
	}
	JOINT LeftUpLeg
	{
		OFFSET 9.56712 -3.18904 3
		CHANNELS 3 Yrotation Xrotation Zrotation
		JOINT LeftLeg
		{
			OFFSET -0 -42.4756 2.23233
			CHANNELS 3 Yrotation Xrotation Zrotation
			JOINT LeftFoot
			{
				OFFSET -0 -34.3506 -2.23233
				CHANNELS 3 Yrotation Xrotation Zrotation
				JOINT LeftToeBase
				{
					OFFSET -0 -9.50731 8.10572
					CHANNELS 3 Yrotation Xrotation Zrotation
					End Site
					{
						OFFSET 0 0 5
					}
				}
			}
		}
	}
	JOINT RightUpLeg
	{
		OFFSET -9.56712 -3.18904 3
		CHANNELS 3 Yrotation Xrotation Zrotation
		JOINT RightLeg
		{
			OFFSET -0 -42.4756 2.23233
			CHANNELS 3 Yrotation Xrotation Zrotation
			JOINT RightFoot
			{
				OFFSET -0 -34.3506 -2.23233
				CHANNELS 3 Yrotation Xrotation Zrotation
				JOINT RightToeBase
				{
					OFFSET -0 -9.50731 8.10572
					CHANNELS 3 Yrotation Xrotation Zrotation
					End Site
					{
						OFFSET 0 0 5
					}
				}
			}
		}
	}
}
MOTION
Frames: 5
Frame Time: 0.0047619
0 90.263297 0 0 0 0 0 0 0 0 0 0 0 0 0 0 0 0 0 0 0 0 0 0 0 0 0 0 0 0 0 0 0 0 0 0 0 0 0 0 0 0 0 0 0 0 0 0 0 0 0 0 0 0 0 0 0 0 0 0 0 0 0 0 0 0 0 0 0 0 0 0 0 0 0 0 0 0 0 0 0 0 0 0 0 0 0 0 0 0 0 0 0 0 0 0 0 0 0 0 0 0 0 0 0 0 0 0 0 0 0 0 0 0 0 0 0 0 0 0 0 0 0 0 0 0 0 0 0 0 0 0 0 0 0 0 0 0 0 0 0 0 0 0 0 0 0 0 0 0 0 0 0 0 0 0 0 0 0 0 0 0 0 0 0 0 0 0 0 0 0 0 0 0 0 0 0 0 0 0 0 0 0 0 0 0 0 0 0 0 0 0
-44.106479 89.805078 40.760992 4.329062 -0.793709 1.030302 1.621761 0.395072 -1.221790 1.534889 0.396893 -0.882588 1.468212 0.435474 -0.534656 1.429074 0.456466 -0.173510 -2.116003 -3.508199 0.674287 -0.906153 2.070925 -0.416749 5.540313 -1.951036 8.548136 -5.224179 6.256442 2.285289 -8.056949 6.249680 -1.063256 13.323843 5.440996 -29.438816 17.534681 -1.804678 -9.253984 20.183563 -1.827486 -10.674562 -15.197990 9.434047 -1.524765 -0.000016 -0.000007 0.710644 -0.000016 -0.000007 0.710644 -0.000003 -0.000003 0.568512 0.000004 -0.000001 0.284259 -0.000010 -0.000007 -0.290159 -0.000010 -0.000007 -0.290159 -0.000003 -0.000001 -0.232125 -0.000009 -0.000003 -0.116065 -0.000019 -0.000003 8.171737 -0.000019 -0.000003 8.171737 0.000003 -0.000002 6.537379 -0.000003 -0.000007 3.268693 -0.000034 -0.000016 4.590846 -0.000034 -0.000016 4.590846 -0.000006 -0.000008 3.672677 -0.000028 -0.000014 1.836339 -170.524775 -0.009558 -179.884665 -10.218517 -0.298591 -7.049859 9.099456 3.698204 -7.473720 8.870598 3.823565 4.471717 -8.033794 11.067510 30.810014 6.630403 5.835548 -10.028003 7.538873 6.806749 -11.480754 -62.233142 21.098153 6.833896 -0.000011 0.000002 -11.745038 -0.000011 0.000002 -11.745038 -0.000014 0.000000 -9.396027 -0.000003 0.000001 -4.698012 -0.000007 0.000003 -0.541306 -0.000007 0.000003 -0.541306 -0.000010 -0.000002 -0.433041 -0.000005 0.000002 -0.216523 0.000080 0.000019 11.469537 0.000080 0.000019 11.469537 0.000055 0.000022 9.175629 0.000032 0.000019 4.587815 -0.000018 -0.000002 22.188614 -0.000018 -0.000002 22.188614 -0.000018 -0.000010 17.750890 -0.000008 -0.000011 8.875458 17.534681 -1.804678 -9.253984 0.341835 6.735924 3.329930 0.000000 1.441069 0.000000 3.838726 2.189289 -3.701651 0.000000 -9.789395 0.000000 -5.094781 6.943897 -9.133028 0.000000 -1.345347 0.000000 -9.150033 2.623507 9.409137 0.000000 -6.261762 0.000000
-44.104474 89.806635 40.762411 4.303354 -0.795845 1.035457 1.633098 0.395948 -1.218655 1.545941 0.409182 -0.882845 1.474591 0.447482 -0.537695 1.435684 0.442349 -0.172777 -2.109585 -3.539132 0.688128 -0.903124 2.089553 -0.444660 5.533809 -1.978950 8.558109 -5.226635 6.337053 2.248161 -8.067041 6.243278 -1.027689 13.353748 5.392926 -29.449388 17.534681 -1.804678 -9.253984 20.183563 -1.827486 -10.674562 -15.197990 9.434047 -1.524765 -0.000016 -0.000007 0.710644 -0.000016 -0.000007 0.710644 -0.000003 -0.000003 0.568512 0.000004 -0.000001 0.284259 -0.000010 -0.000007 -0.290159 -0.000010 -0.000007 -0.290159 -0.000003 -0.000001 -0.232125 -0.000009 -0.000003 -0.116065 -0.000019 -0.000003 8.171737 -0.000019 -0.000003 8.171737 0.000003 -0.000002 6.537379 -0.000003 -0.000007 3.268693 -0.000034 -0.000016 4.590846 -0.000034 -0.000016 4.590846 -0.000006 -0.000008 3.672677 -0.000028 -0.000014 1.836339 -170.524775 -0.009558 -179.884665 -10.229452 -0.306986 -7.039727 9.077115 3.695141 -7.466688 8.885950 3.814736 4.462202 -8.039528 11.057735 30.786426 6.630403 5.835548 -10.028003 7.538873 6.806749 -11.480754 -62.233142 21.098153 6.833896 -0.000011 0.000002 -11.745038 -0.000011 0.000002 -11.745038 -0.000014 0.000000 -9.396027 -0.000003 0.000001 -4.698012 -0.000007 0.000003 -0.541306 -0.000007 0.000003 -0.541306 -0.000010 -0.000002 -0.433041 -0.000005 0.000002 -0.216523 0.000080 0.000019 11.469537 0.000080 0.000019 11.469537 0.000055 0.000022 9.175629 0.000032 0.000019 4.587815 -0.000018 -0.000002 22.188614 -0.000018 -0.000002 22.188614 -0.000018 -0.000010 17.750890 -0.000008 -0.000011 8.875458 17.534681 -1.804678 -9.253984 0.347250 6.737349 3.323547 0.000000 1.456486 0.000000 3.848522 2.186157 -3.707732 0.000000 -9.796909 0.000000 -5.032566 6.948231 -9.136589 0.000000 -1.355862 0.000000 -9.171683 2.669978 9.439004 0.000000 -6.292120 0.000000
-44.100955 89.804083 40.763528 4.292216 -0.795604 1.043764 1.635266 0.403020 -1.230096 1.548438 0.423737 -0.879641 1.472000 0.440546 -0.516681 1.432876 0.408194 -0.167717 -2.102603 -3.489482 0.644654 -0.899994 2.028240 -0.413429 5.534430 -1.965833 8.540419 -5.210200 6.317040 2.232816 -8.075602 6.270188 -1.020091 13.373345 5.403284 -29.442567 17.534681 -1.804678 -9.253984 20.183563 -1.827486 -10.674562 -15.197990 9.434047 -1.524765 -0.000016 -0.000007 0.710644 -0.000016 -0.000007 0.710644 -0.000003 -0.000003 0.568512 0.000004 -0.000001 0.284259 -0.000010 -0.000007 -0.290159 -0.000010 -0.000007 -0.290159 -0.000003 -0.000001 -0.232125 -0.000009 -0.000003 -0.116065 -0.000019 -0.000003 8.171737 -0.000019 -0.000003 8.171737 0.000003 -0.000002 6.537379 -0.000003 -0.000007 3.268693 -0.000034 -0.000016 4.590846 -0.000034 -0.000016 4.590846 -0.000006 -0.000008 3.672677 -0.000028 -0.000014 1.836339 -170.524775 -0.009558 -179.884665 -10.247619 -0.270635 -7.058214 9.089828 3.670595 -7.471574 8.896826 3.808110 4.470093 -8.047909 11.047234 30.763119 6.630403 5.835548 -10.028003 7.538873 6.806749 -11.480754 -62.233142 21.098153 6.833896 -0.000011 0.000002 -11.745038 -0.000011 0.000002 -11.745038 -0.000014 0.000000 -9.396027 -0.000003 0.000001 -4.698012 -0.000007 0.000003 -0.541306 -0.000007 0.000003 -0.541306 -0.000010 -0.000002 -0.433041 -0.000005 0.000002 -0.216523 0.000080 0.000019 11.469537 0.000080 0.000019 11.469537 0.000055 0.000022 9.175629 0.000032 0.000019 4.587815 -0.000018 -0.000002 22.188614 -0.000018 -0.000002 22.188614 -0.000018 -0.000010 17.750890 -0.000008 -0.000011 8.875458 17.534681 -1.804678 -9.253984 0.352432 6.736675 3.313505 0.000000 1.464353 0.000000 3.857883 2.169643 -3.728565 0.000000 -9.762922 0.000000 -5.046654 6.936717 -9.145775 0.000000 -1.326843 0.000000 -9.156008 2.629461 9.410318 0.000000 -6.241680 0.000000
-44.098764 89.804382 40.763507 4.285095 -0.796627 1.051197 1.629154 0.428462 -1.241930 1.543940 0.398055 -0.879696 1.474122 0.426295 -0.507821 1.434492 0.435726 -0.164714 -2.096757 -3.411178 0.617235 -0.896841 1.877844 -0.379806 5.551760 -1.943715 8.527048 -5.199244 6.338489 2.248451 -8.098564 6.244021 -1.014480 13.404350 5.388690 -29.447857 17.534681 -1.804678 -9.253984 20.183563 -1.827486 -10.674562 -15.197990 9.434047 -1.524765 -0.000016 -0.000007 0.710644 -0.000016 -0.000007 0.710644 -0.000003 -0.000003 0.568512 0.000004 -0.000001 0.284259 -0.000010 -0.000007 -0.290159 -0.000010 -0.000007 -0.290159 -0.000003 -0.000001 -0.232125 -0.000009 -0.000003 -0.116065 -0.000019 -0.000003 8.171737 -0.000019 -0.000003 8.171737 0.000003 -0.000002 6.537379 -0.000003 -0.000007 3.268693 -0.000034 -0.000016 4.590846 -0.000034 -0.000016 4.590846 -0.000006 -0.000008 3.672677 -0.000028 -0.000014 1.836339 -170.524775 -0.009558 -179.884665 -10.228175 -0.261926 -7.054724 9.063085 3.668241 -7.468874 8.899393 3.780739 4.466405 -8.046891 11.037334 30.751692 6.630403 5.835548 -10.028003 7.538873 6.806749 -11.480754 -62.233142 21.098153 6.833896 -0.000011 0.000002 -11.745038 -0.000011 0.000002 -11.745038 -0.000014 0.000000 -9.396027 -0.000003 0.000001 -4.698012 -0.000007 0.000003 -0.541306 -0.000007 0.000003 -0.541306 -0.000010 -0.000002 -0.433041 -0.000005 0.000002 -0.216523 0.000080 0.000019 11.469537 0.000080 0.000019 11.469537 0.000055 0.000022 9.175629 0.000032 0.000019 4.587815 -0.000018 -0.000002 22.188614 -0.000018 -0.000002 22.188614 -0.000018 -0.000010 17.750890 -0.000008 -0.000011 8.875458 17.534681 -1.804678 -9.253984 0.331460 6.736992 3.303228 0.000000 1.473817 0.000000 3.884606 2.187019 -3.754865 0.000000 -9.748098 0.000000 -4.996232 6.939599 -9.149810 0.000000 -1.319917 0.000000 -9.220661 2.610760 9.425938 0.000000 -6.271199 0.000000
